<svg width="90" height="140" viewBox="0 0 90 140" fill="none" xmlns="http://www.w3.org/2000/svg">
<g clip-path="url(#clip0_3_17)">
<path d="M0 100.2C0 91.4 0.6 82.8 1.4 74.2C2.2 64.4 2.6 54.6 2.6 45C2.6 33.2 2.4 22 1 10.6C4 9.8 10.4 8.6 16.6 7.2C20.4 6.4 23.8 5.6 26.8 5C28.2 4.6 31.2 4.2 31.6 4.2C37 2.4 37.8 1.6 39.2 0.8C40.2 0.2 41.4 0 42.6 0C46.6 0 50.8 2.2 54.2 5.6C54.2 5.6 58 6.2 57.6 6.6C57.6 6.6 60.6 13 61.2 14.4L62.2 17H65C67.2 17 70.6 19.4 71.4 21V22.4C71.4 24.2 75 26.6 75.8 27.4C76.8 27.6 77.6 28.4 78.6 29.6C80.4 31 81.8 33.2 83.2 35.4C88 44.6 89.4 60.2 89.4 71.4C89.4 86 86.6 139.4 66 139.4C64.4 139.4 63.2 139.2 62.4 138.6L60.8 137.4L59 138.2C58.4 138.2 54.2 136.4 53.4 136.2C52.8 136 50.8 135.6 50.8 135.6C45.4 133.4 44.8 133.4 44 133.4C43.4 133.6 40.2 133.6 40.2 133.6C31.2 134.6 22.2 135.2 12.8 135.8C9.8 136 7.6 136.8 4.6 136.8C3.6 136.8 3.2 136.8 3 136.6C2.8 136.4 2.2 133.8 2 132C0.6 121.4 0 110.8 0 100.2Z" fill="black"/>
</g>
<defs>
<clipPath id="clip0_3_17">
<rect width="90" height="140" fill="white"/>
</clipPath>
</defs>
</svg>
