<svg width="90" height="140" viewBox="0 0 90 140" fill="none" xmlns="http://www.w3.org/2000/svg">

	<path id="outline"
		d="M0 100.2C0 91.4 0.6 82.8 1.4 74.2C2.2 64.4 2.6 54.6 2.6 45C2.6 33.2 2.4 22 1 10.6C4 9.8 10.4 8.6 16.6 7.2C20.4 6.4 23.8 5.6 26.8 5C28.2 4.6 31.2 4.2 31.6 4.2C37 2.4 37.8 1.6 39.2 0.8C40.2 0.2 41.4 0 42.6 0C46.6 0 50.8 2.2 54.2 5.6C54.2 5.6 58 6.2 57.6 6.6C57.6 6.6 60.6 13 61.2 14.4L62.2 17H65C67.2 17 70.6 19.4 71.4 21V22.4C71.4 24.2 75 26.6 75.8 27.4C76.8 27.6 77.6 28.4 78.6 29.6C80.4 31 81.8 33.2 83.2 35.4C88 44.6 89.4 60.2 89.4 71.4C89.4 86 86.6 139.4 66 139.4C64.4 139.4 63.2 139.2 62.4 138.6L60.8 137.4L59 138.2C58.4 138.2 54.2 136.4 53.4 136.2C52.8 136 50.8 135.6 50.8 135.6C45.4 133.4 44.8 133.4 44 133.4C43.4 133.6 40.2 133.6 40.2 133.6C31.2 134.6 22.2 135.2 12.8 135.8C9.8 136 7.6 136.8 4.6 136.8C3.6 136.8 3.2 136.8 3 136.6C2.8 136.4 2.2 133.8 2 132C0.6 121.4 0 110.8 0 100.2Z"
		fill="none" />
	<path id="letter"
		d="M0 100.2C0 91.4 0.6 82.8 1.4 74.2C2.2 64.4 2.6 54.6 2.6 45C2.6 33.2 2.4 22 1 10.6C4 9.8 10.4 8.6 16.6 7.2C20.4 6.4 23.8 5.6 26.8 5C28.2 4.6 29.4 4.4 30.4 4.4C30.8 4.19999 31.2 4.19999 31.6 4.19999C37 2.39999 37.8 1.6 39.2 0.800001C40.2 0.199997 41.4 0 42.6 0C46.6 0 50.8 2.19999 54.2 5.6L59.4 5.99999C58.6 5.99999 58 6.2 57.6 6.6L57.2 6.4C59.6 11.4 60.6 13 61.2 14.4L62.2 17H65C67.2 17 70.6 19.4 71.4 21V22.4C71.4 24.2 75 26.6 75.8 27.4C76.8 27.6 77.6 28.4 78.6 29.6C80.4 31 81.8 33.2 83.2 35.4C88 44.6 89.4 60.2 89.4 71.4C89.4 86 86.6 139.4 66 139.4C64.4 139.4 63.2 139.2 62.4 138.6L60.8 137.4L59 138.2C58.4 138.2 58.2 138.2 58 138C57.2 137.8 56.6 137.4 56 137.2C55 136.6 54.2 136.4 53.4 136.2C52.8 136 51.8 135.6 50.4 135.4L50.8 135.6C45.4 133.4 44.8 133.4 44 133.4C43.4 133.6 42.8 133.6 42.2 133.6H40.2C31.2 134.6 22.2 135.2 12.8 135.8C9.8 136 7.6 136.8 4.6 136.8C3.6 136.8 3.2 136.8 3 136.6C2.8 136.4 2.8 136.2 2.6 136C2.4 135 2.2 133.8 2 132C0.6 121.4 0 110.8 0 100.2ZM10.2 58.4L22.4 73C24.8 76 26.2 79.6 26.6 84L27.4 91L33 87.2L36.8 84.2C37.4 83.6 37.8 83.4 39.2 82.8L40.6 82.2C40.8 82.2 41 82.2 41.2 82L41.8 82.2H42L42.2 82H42.4L42.2 82.6L42.8 82.2C43.6 82.4 44.2 82.4 45 82.6C47.2 82.8 49.2 83 51.4 83L53.4 82.8L54.8 82.4H55.2L55.6 82.2H56.4L60.4 84.4C61 84.8 61.6 85.2 62 85.4C62.2 85.6 62.6 86.2 62.8 86.4L63 86.2L63.8 86.6L65.8 86C66.6 85.4 69.4 82.8 69.6 81.4V80L69 79C68.8 78.8 68.4 78 67.4 77.2L66.6 76.6C66.6 76.4 66.6 76.4 66.8 76.4L67.4 76.6C67.6 76.6 67.6 76.6 67.8 76.8L74 78.8L75 78.4C76.6 77.8 78.8 76 79 73.8C79 73.2 79.6 72.2 79.6 71.6L78.8 71.4V71.6L78.4 71C76.8 68.4 67.6 66.4 66.8 66.4C63.8 66.4 61.4 67 59 67.8C58.8 67.8 58.6 67.8 58.4 68C58.2 67.8 58.2 67.4 58.2 67.2L58 66.6C57.8 66.4 57.6 66.2 57.6 66C57.6 65.6 57.6 65.4 57.8 65.4V65.2L58.6 64.8C59.6 64 60.6 63.4 61.4 62.8C62.8 61.4 63.8 60 64 58.6L64.4 55.8L62 54.2C61.4 53.8 60.8 53.6 59.8 53.6C56.6 53.6 49.4 59.8 46.8 62.4L47 62.6C42.4 65.6 37 68.2 33.2 68.2C31.4 68.2 30 67.6 27.4 66.8L10.2 58.4ZM54.6 72.8L62.4 72.6L61.8 73.4C59.4 73 57 72.8 54.6 72.8ZM62.6 85.6C62.8 85.6 63 85.6 63.2 85.8L63 86.2L62.4 85.8V85.6H62.6ZM47.6 62.4C47.6 62.6 47.6 62.6 47.8 62.6C47.6 62.8 47.6 62.8 47.6 63L47 62.6C47.2 62.4 47.2 62.4 47.4 62.4H47.6Z"
		fill="black" />

</svg>