<svg width="77" height="140" viewBox="0 0 77 140" fill="none" xmlns="http://www.w3.org/2000/svg">
<g clip-path="url(#clip0_3_14)">
<path d="M0.4 56.4C1 36.2 6.4 0 22.8 0C27.4 0 30 2.2 30 6.8C30 8.2 40.2 12.4 41.8 12.4C42 12.4 47.4 13.6 48.4 13.6C51 13.6 52.2 13.8 53.2 14.4C53.6 14.6 60.4 18.8 61 19C64 21.4 65.6 27.6 65.6 33.8C65.6 38.8 63.6 43.4 59.8 47.2C59.8 47.6 55.6 50.6 55.2 51.6C54.255 52.545 51.5 55.5 52.8 65.8C54.5246 70.9739 55 74.5 59.6 82.8C60.8 82.8 61.8 83 62.8 83.4C64.4 83.8 66.2 84 68 84C70.6 84 73.2 83.2 75.8 83C76 84 76.2 85.2 76.2 86.2C76.2 90.8 75.8 96.4 74.8 100.2C73.8 104 71.6 107 70.6 110.8C70 112.4 70.2 113.8 69.6 115.4C69.4 116.6 69 117.4 68.6 118C67.2 121 65.2 123.4 63 125.8C57.6 128 52.2 131.4 49.2 137.2C48 137.8 47 138.2 46.2 138.2L42.8 138.8C42 139 36.8 139.4 36.8 139.4C28.6 139.4 20.6 139.4 12.4 138C10 137.4 8.6 137 8.4 136.8C4.2 134.2 3.2 121 2.6 116.4C1.6 105.8 1.8 94.8 1.6 89.4C1.6 87.2 1 84.8 0.8 82.6C0.2 78 0 73.4 0 68.8V66.4C0 64 0.2 60.6 0.4 56.4Z" fill="black"/>
</g>
<defs>
<clipPath id="clip0_3_14">
<rect width="77" height="140" fill="white"/>
</clipPath>
</defs>
</svg>
