<svg width="77" height="140" viewBox="0 0 77 140" fill="none" xmlns="http://www.w3.org/2000/svg">

	<path id="outline"
		d="M0.4 56.4C1 36.2 6.4 0 22.8 0C27.4 0 30 2.2 30 6.8C30 8.2 40.2 12.4 41.8 12.4C42 12.4 47.4 13.6 48.4 13.6C51 13.6 52.2 13.8 53.2 14.4C53.6 14.6 60.4 18.8 61 19C64 21.4 65.6 27.6 65.6 33.8C65.6 38.8 63.6 43.4 59.8 47.2C59.8 47.6 55.6 50.6 55.2 51.6C54.255 52.545 51.5 55.5 52.8 65.8C54.5246 70.9739 55 74.5 59.6 82.8C60.8 82.8 61.8 83 62.8 83.4C64.4 83.8 66.2 84 68 84C70.6 84 73.2 83.2 75.8 83C76 84 76.2 85.2 76.2 86.2C76.2 90.8 75.8 96.4 74.8 100.2C73.8 104 71.6 107 70.6 110.8C70 112.4 70.2 113.8 69.6 115.4C69.4 116.6 69 117.4 68.6 118C67.2 121 65.2 123.4 63 125.8C57.6 128 52.2 131.4 49.2 137.2C48 137.8 47 138.2 46.2 138.2L42.8 138.8C42 139 36.8 139.4 36.8 139.4C28.6 139.4 20.6 139.4 12.4 138C10 137.4 8.6 137 8.4 136.8C4.2 134.2 3.2 121 2.6 116.4C1.6 105.8 1.8 94.8 1.6 89.4C1.6 87.2 1 84.8 0.8 82.6C0.2 78 0 73.4 0 68.8V66.4C0 64 0.2 60.6 0.4 56.4Z"
		fill="none" />
	<path id="letter"
		d="M0.40001 56.4C1.00001 36.2 6.40001 0 22.8 0C27.4 0 30 2.2 30 6.8C30 8.2 29.8 9.4 29.2 11.6L27.2 18.8L29.4 23H31.8C34.8 23 37.4 18.2 37.4 15.6C37.6 14.8 40.2 12.4 41.8 12.4C42 12.4 42.4 12.4 42.6 12.6C43.2 12.6 43.4 12.8 44 12.8C44.6 13 45.2 13.2 46 13.4C46.6 13.6 47.4 13.6 48.4 13.6C51 13.6 52.2 13.8 53.2 14.4C53.6 14.6 54.2 14.8 55 15.4C55.8 16 56.6 16.4 58 17C58.6 17.6 59.2 18 59.8 18.2C60.4 18.4 60.4 18.8 61 19C64 21.4 65.6 27.6 65.6 33.8C65.6 38.8 63.6 43.4 59.8 47.2C59.8 47.6 59.6 47.8 59 48C58.4 48.6 57.6 48.8 57 49.4C56.2 50 55.6 50.6 55.2 51.6C54.6 52.2 50.4 54 49.4 54C49.2 54 48.8 54 48.4 53.8C47.8 53.8 47.2 53.6 46.4 53.4C44.2 53.2 42 53 39.8 53C38.4 53 37.2 53.2 36.2 53.8C35.2 54.4 34.2 54.6 33.4 55.4C32.8 55.6 32.2 56 31.6 56.2C31 55.6 30.2 55.4 29.6 54.8C28.8 54.2 27.8 54 26.8 53.4L25.2 52.4L23.4 53C22 53.6 19.6 55.6 19.6 57.8C19.6 59.6 20.8 61.2 23.2 63C22.6 62.8 22.2 62.2 21.6 62.2C19.4 61.4 17 60.6 16.4 60.6L15.2 60.2L14.2 60.6C12.8 61.2 10 63.8 10 65.2C10 66.6 10.8 68.6 13.4 70.2C16.4 71.2 19.4 72.6 22.4 72.6C25.8 72.6 43.8 68.4 52.8 65.8C53 66.4 52.8 67 53.4 67.8C53.2 67.8 53 68 52.4 68.2C49.8 69 46.4 70.4 43 71.4C36.4 73.6 29.2 75.8 27.8 76.4L24.2 77.8L25.2 81.6C25.4 82.6 26.4 85.6 27.4 88.6C28 90.4 29 93.6 30.4 95C31.8 96.8 33 97.2 34 97.2C34.8 97.2 35.6 97 36.4 96.6C39.4 95.2 44.4 92 45 88.6C49.6 85.6 55.4 82.8 59.6 82.8C60.8 82.8 61.8 83 62.8 83.4C64.4 83.8 66.2 84 68 84C70.6 84 73.2 83.2 75.8 83C76 84 76.2 85.2 76.2 86.2C76.2 90.8 75.8 96.4 74.8 100.2C73.8 104 71.6 107 70.6 110.8C70 112.4 70.2 113.8 69.6 115.4C69.4 116.6 69 117.4 68.6 118C67.2 121 65.2 123.4 63 125.8C57.6 128 52.2 131.4 49.2 137.2C48 137.8 47 138.2 46.2 138.2H45.4H44.2L42.8 138.8C42 139 41.2 139.2 40.6 139.4H36.8C28.6 139.4 20.6 139.4 12.4 138C10 137.4 8.60001 137 8.40001 136.8C4.20001 134.2 3.20001 121 2.60001 116.4C1.60001 105.8 1.80001 94.8 1.60001 89.4C1.60001 87.2 1.00001 84.8 0.800009 82.6C0.20001 78 9.53674e-06 73.4 9.53674e-06 68.8V66.4C9.53674e-06 64 0.20001 60.6 0.40001 56.4Z"
		fill="black" />

</svg>