<svg width="142" height="140" viewBox="0 0 142 140" fill="none" xmlns="http://www.w3.org/2000/svg">
<g clip-path="url(#clip0_3_31)">
<path d="M0 77.8C0 72.4 0.4 67.4 1.4 63.2C1.6 61.8 2 60.2 2.6 58.4C4 55 5 51.6 6.6 48.2C7.2 47 7.8 45.8 8.6 44.8L10.6 42.8C11.2 42.6 13 41.2 13.6 41C13.6 41 16.6 39.2 17 39C19.2 38.4 21.6 35.8 23 34.4C35.8 21.6 64.8 5.8 83.4 2.6C87.2 2 91.2 2 95 2.2H96.2L97.2 1.6C99 0.6 100.8 0 102.6 0C103.2 3.8 105 7.2 107.4 10.2C108 10.8 108.8 11.4 109.4 12C110.4 13 111.6 14.4 113 15.2L114.2 16.4C132.4 30.2 137.8 45 141.6 66.4C141.6 67 141.6 67.4 141.8 67.6C141.8 71 141.2 74.2 140.4 77.6C138.8 84.6 132.8 104.8 128.6 110.6C128 111.6 127.4 112.4 126.8 113C126.4 113.6 125.6 114.4 124.6 115.4C122.2 117.4 120.2 119.2 118.6 121C116.6 123 114.8 125.2 113.4 127.4C108 135.4 97.2 139.4 87.8 139.4H50.4C49 139.4 46.8 139 44 138C37.6 136.2 31 134.2 24.8 131.2C17.6 128 16.6 127.6 13 120.2C6.4 106.8 0 93 0 77.8Z" fill="black"/>
</g>
<defs>
<clipPath id="clip0_3_31">
<rect width="142" height="140" fill="white"/>
</clipPath>
</defs>
</svg>
