<svg width="142" height="140" viewBox="0 0 142 140" fill="none" xmlns="http://www.w3.org/2000/svg">

	<path id="outline"
		d="M0 77.8C0 72.4 0.4 67.4 1.4 63.2C1.6 61.8 2 60.2 2.6 58.4C4 55 5 51.6 6.6 48.2C7.2 47 7.8 45.8 8.6 44.8L10.6 42.8C11.2 42.6 13 41.2 13.6 41C13.6 41 16.6 39.2 17 39C19.2 38.4 21.6 35.8 23 34.4C35.8 21.6 64.8 5.8 83.4 2.6C87.2 2 91.2 2 95 2.2H96.2L97.2 1.6C99 0.6 100.8 0 102.6 0C103.2 3.8 105 7.2 107.4 10.2C108 10.8 108.8 11.4 109.4 12C110.4 13 111.6 14.4 113 15.2L114.2 16.4C132.4 30.2 137.8 45 141.6 66.4C141.6 67 141.6 67.4 141.8 67.6C141.8 71 141.2 74.2 140.4 77.6C138.8 84.6 132.8 104.8 128.6 110.6C128 111.6 127.4 112.4 126.8 113C126.4 113.6 125.6 114.4 124.6 115.4C122.2 117.4 120.2 119.2 118.6 121C116.6 123 114.8 125.2 113.4 127.4C108 135.4 97.2 139.4 87.8 139.4H50.4C49 139.4 46.8 139 44 138C37.6 136.2 31 134.2 24.8 131.2C17.6 128 16.6 127.6 13 120.2C6.4 106.8 0 93 0 77.8Z"
		fill="none" />
	<path id="letter"
		d="M49.4 58L35.6 46.6L43.4 63.4C44.8 66 45.4 69.2 45.4 73C45.4 75 45.2 77.2 44.8 79.4L43.8 86.4L53.4 82.6L55.4 81.6C56 81.4 56.6 81 57.2 80.8C57.6 80.6 58.4 80.6 59.6 80.6H62.6C62.6 80.8 62.8 80.8 63.2 80.8L63.8 81C68.6 83.2 73.6 85.4 79 86.2H80.2C80.8 86.4 81.2 86.4 81.6 86.2C81.8 86.8 82.2 87.2 82.4 87.4C83 88.8 84.8 90.2 85.8 91L88.2 93.4L89.4 94.6H91C93.2 94.6 96.8 92.2 96.8 89.8C96.8 88.8 95.8 86.4 95.2 85.8C94.2 84.8 93.6 84.2 93.4 83.8C92.8 83.2 92.4 82.6 92.2 82.4L91.8 82C91.6 81.8 91.6 81.8 91.6 81.6H92L92.6 81.4H93.6C94 81.8 94.2 82 94.4 82C95.8 83 97.4 84.2 99 85.2C100.6 86.2 102.2 87.2 103.6 87.8L104.4 88.4H105.6C106.6 88.4 108.4 87.6 109.2 86.8C109.6 86.6 110.2 86 111 85.2C111.4 84.6 111.6 84 111.6 83.6C111.6 83.4 111.4 82.8 111 81.8C110.4 81 110 80.4 109.4 79.8L109.8 79.4C109.6 79.2 109.4 79.2 109.2 79H108.4C107.6 78.2 106.4 77 105.4 76.4C104.4 75.4 103.4 74.8 102.4 74.4L102.2 73.8L102 74.6V74C99.4 72.6 96 71.8 92.2 71.8H88.4C88.2 72 88 72 87.6 72H86.8C87 71.8 87 71.6 87 71.2C87 70.8 87 70.6 87.2 70.4L87.4 68.8V67.8C87.2 67.6 87.2 67.4 87.2 66.8C87.4 66.6 87.8 66.4 88 66.2C88.2 66 88.4 66 88.6 65.8C88.8 65.8 88.8 65.8 89 65.6C90.4 65 91.2 64.8 92.6 64.2C94 63.6 94.6 63.6 95.2 63.4L97 62.8L98.2 59L98.4 56.4L97.4 55.8C97.2 55.6 96.6 55.4 95.8 54.8L95.6 54.6C94.8 54 94 53.6 93.4 53C92.6 52.4 92.2 52.2 91.6 52L91.2 52.6C91.6 52.8 92 53.2 92.6 53.4L93.8 54H93.4C92.8 54 92.4 54.2 91 54.4C88 55.2 85.2 56 82.6 57.4C81.4 58 80.6 58.6 80 59.4L79.4 60C79.2 60.2 79.2 60.2 79.2 60.4L78.8 60.8L78 61C75.6 61.8 73.2 62.4 70.6 62.8C68.4 63.4 65.8 63.6 63.2 63.6C57 63.6 54 62 49.4 58ZM0 77.8C0 72.4 0.4 67.4 1.4 63.2C1.6 61.8 2 60.2 2.6 58.4C4 55 5 51.6 6.6 48.2C7.2 47 7.8 45.8 8.6 44.8L10.6 42.8C11.2 42.6 11.6 42.4 12.2 41.8C12.8 41.6 13 41.2 13.6 41L14.8 40.4C15 40.2 15.2 40 15.8 39.8C16.2 39.4 16.6 39.2 17 39C19.2 38.4 21.6 35.8 23 34.4C35.8 21.6 64.8 5.8 83.4 2.6C87.2 2 91.2 2 95 2.2H96.2L97.2 1.6C99 0.600003 100.8 0 102.6 0C103.2 3.8 105 7.2 107.4 10.2C108 10.8 108.8 11.4 109.4 12C110.4 13 111.6 14.4 113 15.2L114.2 16.4C132.4 30.2 137.8 45 141.6 66.4C141.6 67 141.6 67.4 141.8 67.6C141.8 71 141.2 74.2 140.4 77.6C138.8 84.6 132.8 104.8 128.6 110.6C128 111.6 127.4 112.4 126.8 113C126.4 113.6 125.6 114.4 124.6 115.4C122.2 117.4 120.2 119.2 118.6 121C116.6 123 114.8 125.2 113.4 127.4C108 135.4 97.2 139.4 87.8 139.4H50.4C49 139.4 46.8 139 44 138C37.6 136.2 31 134.2 24.8 131.2C17.6 128 16.6 127.6 13 120.2C6.4 106.8 0 93 0 77.8ZM93.8 54C94 54.2 94.2 54.2 94.2 54.2C94 54.2 94 54 93.8 54ZM109.4 79.8L109.2 80C109 80 109 79.4 109 79.4H109.2C109.4 79.6 109.4 79.6 109.4 79.8ZM95.8 54.8C95.6 54.6 95.2 54.4 94.2 54.2C94.8 54.2 95.2 54.4 95.8 54.8Z"
		fill="black" />

</svg>