<svg width="78" height="140" viewBox="0 0 78 140" fill="none" xmlns="http://www.w3.org/2000/svg">
<g clip-path="url(#clip0_3_20)">
<path d="M0.2 104C0 99.8 0 95.6 0.2 91.4V74.8C0 73.4 0 71.8 0 70.4C0 66.6 0.2 63.4 0.4 59.6C0.6 55.8 0.8 52.4 1 48.6C1.2 44.8 1.4 41 1.4 36.8C1.2 32.6 1.6 28.4 2.2 24.2C3.2 15.2 7.6 0 19.2 0C20 0 20.6 1.49012e-08 20.8 0.2C20.8 1.49012e-08 23.4 0.8 23.4 0.8C24.6 0.8 25.4 0.8 25.8 1L29.4 2H31.8C37.8 2 56.4 6 59.6 11.8L60.6 13.6L62.6 14.2C63.2 14.2 64.2 14.6 65.8 15.4C66 15.6 67 16 67.2 16.2C67.2 15.6 69 20.6 69 20.6C70.6 21.2 72 21.4 73 22C74 22.4 74.6 22.8 75.2 23.4C76.2 25 76.8 28.2 77 30C77.4 31.6 77.6 33.4 77.6 35.2C77.6 36.8 77.4 38.2 77.2 39.6C76.8 41 76.4 42 75.8 42.8C75.2 44.2 74.4 45.2 73.6 46.6C72.8 48 71.8 49.2 70.8 50.6L70.2 51.8C69.8 52.2 69 52.8 68 53.6C67.2 54.2 66.4 55.2 65.4 56.2C65.2 56.4 63.8 56.4 63.6 56.6C62 57 60.2 57.4 58.2 57.8C56 58 54 58.4 52.2 58.6C50 58.8 48.8 59 48.2 59C47 59 45.6 58.8 44.2 58.4C42.8 58 41.4 57.8 40 57.8C39 57.8 37.8 57.8 36.8 58C35.4 58.2 34.4 58.4 33.4 58.4C32.2 58.4 33 68.2 33 68.2C33 69.2 33 70 32.8 70.6C32.6 71.2 32.6 72.2 32.6 73.2C32.6 75.4 32.8 77.6 33.2 79.8C33.8 86.2 34.4 92.6 35.4 99C35.8 103.2 36 107.4 36 111.8C36 115.6 35.8 119.4 35.6 123.2L34.4 134.6L34.8 135.8C34.6 136 34.2 136.2 34 136.4C33.8 136.6 33.4 136.8 33 137.2C32 138 31.2 138.4 30.8 138.6C30.2 139 29.8 139.2 29.6 139.2C29.4 139.4 29 139.4 28.2 139.4L26.6 139C26.4 138.8 26 138.8 26 138.8L23.4 137H21.8C21.6 136.8 21.6 136.8 21.4 136.8C21 136.8 20.8 136.8 20.6 136.6L19.4 136.2C19.2 136.2 18.6 136 17.8 135.8C17.2 135.6 16.2 135.4 14.8 134.8C13.8 134.6 13 134.2 12.4 134C11.8 133.8 11.2 133.4 10.6 133.2L8.8 132.6C7.8 132 6.8 131.6 5.4 131C4 130 3 128.8 2.6 127.4C1.6 123.6 1 119.8 0.8 115.8C0.6 112 0.4 108 0.2 104Z" fill="black"/>
</g>
<defs>
<clipPath id="clip0_3_20">
<rect width="78" height="140" fill="white"/>
</clipPath>
</defs>
</svg>
