<svg width="78" height="140" viewBox="0 0 78 140" fill="none" xmlns="http://www.w3.org/2000/svg">

	<path id="outline"
		d="M0.2 104.4C0 100.2 0 96 0.2 91.8V75.2C0 73.8 0 72.2 0 70.8C0 67 0.2 63.8 0.4 60C0.6 56.2 0.8 52.8 1 49C1.2 45.2 1.4 41.4 1.4 37.2C1.2 33 1.6 28.8 2.2 24.6C3.2 15.6 7.6 0.399994 19.2 0.399994C20 0.399994 20.6 0.399994 20.8 0.599994C20.8 0.399994 23.4 1.19999 23.4 1.19999C24.6 1.19999 25.4 1.19999 25.8 1.39999L29.4 2.39999H31.8C37.8 2.39999 56.4 6.39999 59.6 12.2L60.6 14L62.6 14.6C63.2 14.6 64.2 15 65.8 15.8C66 16 67 16.4 67.2 16.6C67.2 16 69 21 69 21C70.6 21.6 72 21.8 73 22.4C74 22.8 74.6 23.2 75.2 23.8C76.2 25.4 76.8 28.6 77 30.4C77.4 32 77.6 33.8 77.6 35.6C77.6 37.2 77.4 38.6 77.2 40C76.8 41.4 76.4 42.4 75.8 43.2C75.2 44.6 74.4 45.6 73.6 47C72.8 48.4 71.8 49.6 70.8 51L70.2 52.2C69.8 52.6 69 53.2 68 54C67.2 54.6 66.4 55.6 65.4 56.6C65.2 56.8 63.8 56.8 63.6 57C62 57.4 60.2 57.8 58.2 58.2C56 58.4 54 58.8 52.2 59C50 59.2 48.8 59.4 48.2 59.4C47 59.4 45.6 59.2 44.2 58.8C42.8 58.4 41.4 58.2 40 58.2C39 58.2 37.8 58.2 36.8 58.4C35.4 58.6 34.4 58.8 33.4 58.8C32.2 58.8 33 68.6 33 68.6C33 69.6 33 70.4 32.8 71C32.6 71.6 32.6 72.6 32.6 73.6C32.6 75.8 32.8 78 33.2 80.2C33.8 86.6 34.4 93 35.4 99.4C35.8 103.6 36 107.8 36 112.2C36 116 35.8 119.8 35.6 123.6L34.4 135L34.8 136.2C34.6 136.4 34.2 136.6 34 136.8C33.8 137 33.4 137.2 33 137.6C32 138.4 31.2 138.8 30.8 139C30.2 139.4 29.8 139.6 29.6 139.6C29.4 139.8 29 139.8 28.2 139.8L26.6 139.4C26.4 139.2 26 139.2 26 139.2L23.4 137.4H21.8C21.6 137.2 21.6 137.2 21.4 137.2C21 137.2 20.8 137.2 20.6 137L19.4 136.6C19.2 136.6 18.6 136.4 17.8 136.2C17.2 136 16.2 135.8 14.8 135.2C13.8 135 13 134.6 12.4 134.4C11.8 134.2 11.2 133.8 10.6 133.6L8.8 133C7.8 132.4 6.8 132 5.4 131.4C4 130.4 3 129.2 2.6 127.8C1.6 124 1 120.2 0.8 116.2C0.6 112.4 0.4 108.4 0.2 104.4Z"
		fill="none" />
	<path id="letter"
		d="M8.4 12.4L16 28.8C17 31.4 17.6 33.8 17.6 36.4L17.8 37L17.4 36.4L17.6 37.2L17 41.6L15.6 48.8L22.4 46.4L26.8 44.4C27 44.2 27.2 44 27.8 43.8C28 43.6 28.8 43.6 30 43.6H31C31.6 43.6 31.8 43.6 32 43.4C32.2 43.6 32.4 43.6 32.6 43.6L33 44C36.8 46.2 40.8 47.2 44.8 48H46.2C46.6 48.2 47.2 48.2 48 48.2C49 49.6 49.8 50.6 50.6 51.2C51.4 52.2 52.4 53.2 53.6 54.2L54.6 55H56.2C58.6 55 61.2 52.6 61.2 50.2C61.2 49.6 61 49 60.6 48.2L61 47.8C60.8 47.6 60.8 47.4 60.2 46.8C60 46.6 59.6 46.4 59.2 46L58.4 44.8C59.2 45 59.6 45.2 59.6 45.2L60.6 45.8C60.8 46 60.8 46 60.8 46.2L61.2 45.6V46L63.6 48C64.6 48.8 65.4 49.2 65.8 49.4L66.8 50H68C70.2 50 71.8 49 73.2 46.8L74.2 44.6L72.8 42.6L70.6 41C70.4 40.8 70 40.6 69.6 40.2C69.4 40 69 39.8 68.6 39.4C68.6 39.2 68.4 39 68.2 38.8L67.8 38.4L67.6 38.8V38.4L65.6 37C62.6 34.8 59.2 34.8 55.4 34.8C55.2 35 54.8 35 54.4 35H53.6C53.6 34.8 53.6 34.8 53.8 34.6V34.2V31.4C54 31.4 54.2 31.4 54.4 31.2H54.8C56.2 30.6 57.2 30.4 57.8 30.2C58.8 30 59.2 29.6 59.8 29.4L61.4 28.6L61.8 27.6C62 26.8 62.4 25.8 63 24.6C63.6 23.8 64 23 64.2 22L63.6 21.8L62.6 24.8C62.6 22.2 61 20.2 58.4 20.2L51.4 22C50.8 22.2 50 22.4 49.4 22.6C48 23.2 46.8 24.4 45.8 25.4C45 26 44.6 26.2 44 26.8C43.8 26.6 43.6 26.6 43.2 26.6C39.8 27.4 36.2 28 32.8 28C30.2 28 28.2 27.8 27.2 27.2C26.2 26.6 24.4 25.4 22.2 23.6L8.4 12.4ZM0.2 104.4C2.5332e-07 100.2 2.5332e-07 96 0.2 91.8V79.8V75.2C2.5332e-07 73.8 0 72.2 0 70.8C0 67 0.2 63.8 0.4 60C0.6 56.2 0.8 52.8 1 49C1.2 45.2 1.4 41.4 1.4 37.2C1.2 33 1.6 28.8 2.2 24.6C3.2 15.6 7.6 0.400007 19.2 0.400007C20 0.400007 20.6 0.400007 20.8 0.600004C20.8 0.400007 20.8 0.200009 20.6 0L23.4 1.20001C24.6 1.20001 25.4 1.20001 25.8 1.40001H26.2C26.4 1.6 26.4 1.6 26.6 1.6L26.2 1.20001L29.4 2.40001H31.8C37.8 2.40001 56.4 6.4 59.6 12.2L60.6 14L62.6 14.6C63.2 14.6 64.2 15 65.8 15.8C66 16 66.4 16.2 66.6 16.2C66.8 16.4 67 16.4 67.2 16.6C67.2 16 67 15.4 66.8 15.2V14.8L69 21C70.6 21.6 72 21.8 73 22.4C74 22.8 74.6 23.2 75.2 23.8C76.2 25.4 76.8 28.6 77 30.4C77.4 32 77.6 33.8 77.6 35.6C77.6 37.2 77.4 38.6 77.2 40C76.8 41.4 76.4 42.4 75.8 43.2C75.2 44.6 74.4 45.6 73.6 47C72.8 48.4 71.8 49.6 70.8 51L70.2 52.2C69.8 52.6 69 53.2 68 54C67.2 54.6 66.4 55.6 65.4 56.6C65.2 56.8 65 56.8 64.6 56.8C64 56.8 63.8 56.8 63.6 57C62 57.4 60.2 57.8 58.2 58.2C56 58.4 54 58.8 52.2 59C50 59.2 48.8 59.4 48.2 59.4C47 59.4 45.6 59.2 44.2 58.8C42.8 58.4 41.4 58.2 40 58.2C39 58.2 37.8 58.2 36.8 58.4C35.4 58.6 34.4 58.8 33.4 58.8C32.2 58.8 26 56.2 24.8 55.6C23 54.8 21.2 54 19.6 53C17.8 52 16.6 51.4 16.2 51L9.4 45.2V55C9.4 55.6 9.8 56.6 10.6 57.8C11.4 59.2 12 60 12.4 60.2C13 60.4 14 61 15.8 61.8C18.2 63.2 21 64.6 24 66C25 66.4 25.8 66.8 26.4 67.2L27.6 67.6C27.8 67.8 28.2 67.8 28.4 68C29 68 29.2 68 29.4 68.2L30.8 64.4C30.8 64.2 30.8 64 31 63.8V66.4L33 68.6C33 69.6 33 70.4 32.8 71C32.6 71.6 32.6 72.6 32.6 73.6C32.6 75.8 32.8 78 33.2 80.2C33.8 86.6 34.4 93 35.4 99.4C35.8 103.6 36 107.8 36 112.2C36 116 35.8 119.8 35.6 123.6L34.4 135L34.8 136.2C34.6 136.4 34.2 136.6 34 136.8C33.8 137 33.4 137.2 33 137.6C32 138.4 31.2 138.8 30.8 139C30.2 139.4 29.8 139.6 29.6 139.6C29.4 139.8 29 139.8 28.2 139.8L26.6 139.4C26.4 139.2 26.2 139.2 26.2 139.2L26.4 139.4C26.2 139.4 26.2 139.4 26.2 139.2H26L23.4 137.4H21.8C21.6 137.2 21.6 137.2 21.4 137.2C21 137.2 20.8 137.2 20.6 137L19.4 136.6C19.2 136.6 18.6 136.4 17.8 136.2C17.2 136 16.2 135.8 14.8 135.2C13.8 135 13 134.6 12.4 134.4C11.8 134.2 11.2 133.8 10.6 133.6L8.8 133C7.8 132.4 6.8 132 5.4 131.4C4 130.4 3 129.2 2.6 127.8C1.6 124 1 120.2 0.8 116.2C0.6 112.4 0.4 108.4 0.2 104.4ZM60.6 48.2L60.4 48.4C60.4 48.4 60.2 48 60 47.2C59.8 47 59.8 46.8 60 47L60.4 47.4C60.4 47.8 60.4 48 60.6 48.2ZM62.2 26.4C62 26.6 62 26.8 62 26.8C62 26.8 62 26.2 62.6 24.8C62.6 25 62.4 25.6 62.2 26.4Z"
		fill="black" />

</svg>