<svg width="87" height="140" viewBox="0 0 87 140" fill="none" xmlns="http://www.w3.org/2000/svg">

	<path id="outline"
		d="M61.8 63.6C66.2 63.6 77 70.8 78.2 74.2C78.4 75 78.6 76 78.6 77.4C78.6 78.2 78.4 79.2 78.2 80.2V90C78.2 93.4 78.6 96.8 78.6 100.2C78.6 106.4 77.6 113.4 73 118C72 119.4 71 120 70 121.4C68.6 122.8 67.8 124 66.8 125.4C65.8 126.6 64.6 127.6 63.2 128.6C56 134.8 45.4 139.4 36 139.4C30.6 139.4 26 138 22.2 134.8L21 133.6H19.6C13 133.6 3.6 121 1.4 116.2C0.4 113.8 0 111.4 0 109C0 104.8 1.8 95.2 3.6 91.8C3.8 91.2 4.6 90.8 5.6 90.8C8.2 90.8 10.4 91.4 13 91.4C21.6 91.4 26.8 89.2 34.2 85.4C34.216 85.384 34.249 85.353 34.296 85.308L28.8 76.4C28.2 75.8 28.4 75.8 28.2 75.2L27.6 73.4L26 72.8C20.6 70.4 16.8 65.6 14.2 59.4L13.4 58L12.4 57.4C3.8 52.4 1 48.2 1 38V29.4C1 24.4 2.2 20 4.8 16.2C11 7.2 28 0 39.2 0C44.6 0 49.6 1 54.6 3L56 3.4L57.4 3C57.8 2.8 58.2 2.8 58.8 2.8C61.4 2.8 64.6 3 67.6 3.6C74 5.8 75.2 5.4 76.6 5.4C77.2 5.6 77.6 6 78 6.4C78.6 6.8 79.4 7.2 80 7.6L81.4 8.6C82 9.2 82.8 9.2 83.4 9.8C84 10.6 84.2 10.6 84.8 11.2C85.4 11.8 85.6 12.6 85.8 13.6C86.4 16.6 86.6 19.4 86.6 22.4C86.6 23.8 86.4 24.4 86.2 25.8C86 26 86 26.2 85.8 26.4C85.6 27 85.2 27.2 84.6 28C80.8 32.6 75.6 36.6 70.8 39.8C69.8 40.6 68.4 41.8 67 43.2C66.4 44 65.8 44.6 65.2 45C63.8 45.6 63 46.2 62.4 46.8L60.8 48.4C60.2 49 57.2 50 55.8 50C55.4 50 61.8 63.6 61.8 63.6Z"
		fill="none" />
	<path id="letter"
		d="M0 109C0 104.8 1.8 95.2 3.6 91.8C3.8 91.2 4.6 90.8 5.6 90.8C8.2 90.8 10.4 91.4 13 91.4C21.6 91.4 26.8 89.2 34.2 85.4C34.8 84.8 35.4 84.6 36.2 84.4C38.8 83 41.6 82.4 44.6 81.4C47.6 80 50.8 79.2 53.8 77L55.6 76L55.8 73.2C55.8 71 51.6 68.6 51.2 68.6C50.2 68.6 49.6 68.6 49 68.8C49.2 68.6 49.6 68.2 49.8 67.6C53.8 65.2 58 63.6 61.8 63.6C66.2 63.6 77 70.8 78.2 74.2C78.4 75 78.6 76 78.6 77.4C78.6 78.2 78.4 79.2 78.2 80.2L79 82.8L78.6 82.4C78.6 84.8 78.2 87.4 78.2 90C78.2 93.4 78.6 96.8 78.6 100.2C78.6 106.4 77.6 113.4 73 118C72 119.4 71 120 70 121.4C68.6 122.8 67.8 124 66.8 125.4C65.8 126.6 64.6 127.6 63.2 128.6C56 134.8 45.4 139.4 36 139.4C30.6 139.4 26 138 22.2 134.8L21 133.6H19.6C13 133.6 3.6 121 1.4 116.2C0.4 113.8 0 111.4 0 109ZM4.8 16.2C11 7.2 28 0 39.2 0C44.6 0 49.6 0.999998 54.6 3L56 3.4L57.4 3C57.8 2.8 58.2 2.8 58.8 2.8C61.4 2.8 64.6 3 67.6 3.6C74 5.8 75.2 5.4 76.6 5.4C77.2 5.6 77.6 5.99999 78 6.4C78.6 6.8 79.4 7.2 80 7.6L81.4 8.6C82 9.2 82.8 9.2 83.4 9.8C84 10.6 84.2 10.6 84.8 11.2C85.4 11.8 85.6 12.6 85.8 13.6C86.4 16.6 86.6 19.4 86.6 22.4C86.6 23.8 86.4 24.4 86.2 25.8C86 26 86 26.2 85.8 26.4C85.6 27 85.2 27.2 84.6 28C80.8 32.6 75.6 36.6 70.8 39.8C69.8 40.6 68.4 41.8 67 43.2C66.4 44 65.8 44.6 65.2 45C63.8 45.6 63 46.2 62.4 46.8L60.8 48.4C60.2 49 57.2 50 55.8 50C55.4 50 55 50 54.4 49.8C53.4 49.2 52.4 49.2 51.6 49C51 49 50.6 48.8 49.8 48.8C45.2 46.2 39.8 42.4 35.2 40.6C35 40.4 34.8 40.4 34.6 40.4C34.4 40.2 34 40.2 33.4 40.2C32.8 39.6 32.2 39.8 31.6 39.6C30.2 39.4 29 39.2 28.8 39.2L5.8 35.8L42.8 56.6L40.4 62.2L41 63.6H40.8L39.8 64.4L36.6 73.2C34.4 74.2 32.4 75 30.6 75.8L28.8 76.4C28.2 75.8 28.4 75.8 28.2 75.2L27.6 73.4L26 72.8C20.6 70.4 16.8 65.6 14.2 59.4L13.4 58L12.4 57.4C3.8 52.4 1 48.2 1 38V29.4C1 24.4 2.2 20 4.8 16.2Z"
		fill="black" />

</svg>