<svg width="76" height="140" viewBox="0 0 76 140" fill="none" xmlns="http://www.w3.org/2000/svg">
<g clip-path="url(#clip0_3_34)">
<path fill-rule="evenodd" clip-rule="evenodd" d="M74.981 61.587C74.994 61.596 75 61.6 75 61.6C75.6 71.2 75.8 80.8 75.8 90.4C75.8 91.2 75.6 92.4 75 94C74.4 95.8 74.2 97.8 73.6 99.2C71.4 109 68.6 117 62.4 124C60.8 125.6 59 127.2 56.8 128L56 128.4C55.4 128.6 54.6 129 54 129.2L53.2 130C52.8 130.4 52.4 130.8 52.2 131.2C51 133 44.6 139.4 42 139.4C41.4 139.4 40.4 139.2 39 138.8C37.6 138.2 36.4 137.4 34.8 136.8C34.8 136.8 31 138.4 31.6 138.2C31 138 30.4 138 29.8 137.4C28.4 136.8 27 136.4 25.6 135.8C22.6 134.4 19.8 132.8 18.4 132.2C14.4 129.8 10.6 127.2 7.2 123.4C1.4 118 0 112 0 104.6V96C0 85.4 1.2 74.8 1.2 64.2C1.2 50.6 2.6 36.4 5.8 23C6.4 20.6 7.6 18.4 8.2 16.2C8.4 15.2 8.6 14.2 8.6 13.6V8L12.4 7.6C15.6 3 19.6 0 23.8 0C28.4 0 31 2.2 31 6.8C31 7.8 30.8 9.2 30.4 11C29.8 12.6 44.01 10.412 44.4 9.8C45.6 7.6 47.8 6.6 50.8 6.6C53 6.6 57.6 7.6 59.2 8.4C59.4 8.6 60.6 10 61.2 10.8C67.6 17.2 72.2 25.2 73 34.6L73.6 41.2C74.194 47.729 74.396 55.041 74.981 61.587Z" fill="black"/>
</g>
<defs>
<clipPath id="clip0_3_34">
<rect width="76" height="140" fill="white"/>
</clipPath>
</defs>
</svg>
