<svg width="76" height="140" viewBox="0 0 76 140" fill="none" xmlns="http://www.w3.org/2000/svg">

	<path id="outline"
		d="M74.981 61.587C74.994 61.596 75 61.6 75 61.6C75.6 71.2 75.8 80.8 75.8 90.4C75.8 91.2 75.6 92.4 75 94C74.4 95.8 74.2 97.8 73.6 99.2C71.4 109 68.6 117 62.4 124C60.8 125.6 59 127.2 56.8 128L56 128.4C55.4 128.6 54.6 129 54 129.2L53.2 130C52.8 130.4 52.4 130.8 52.2 131.2C51 133 44.6 139.4 42 139.4C41.4 139.4 40.4 139.2 39 138.8C37.6 138.2 36.4 137.4 34.8 136.8C34.8 136.8 31 138.4 31.6 138.2C31 138 30.4 138 29.8 137.4C28.4 136.8 27 136.4 25.6 135.8C22.6 134.4 19.8 132.8 18.4 132.2C14.4 129.8 10.6 127.2 7.2 123.4C1.4 118 0 112 0 104.6V96C0 85.4 1.2 74.8 1.2 64.2C1.2 50.6 2.6 36.4 5.8 23C6.4 20.6 7.6 18.4 8.2 16.2C8.4 15.2 8.6 14.2 8.6 13.6V8L12.4 7.6C15.6 3 19.6 0 23.8 0C28.4 0 31 2.2 31 6.8C31 7.8 30.8 9.2 30.4 11C29.8 12.6 44.01 10.412 44.4 9.8C45.6 7.6 47.8 6.6 50.8 6.6C53 6.6 57.6 7.6 59.2 8.4C59.4 8.6 60.6 10 61.2 10.8C67.6 17.2 72.2 25.2 73 34.6L73.6 41.2C74.194 47.729 74.396 55.041 74.981 61.587Z"
		fill="none" />

	<path id="letter"
		d="M0 100.2V96C0 85.4 1.2 74.8 1.2 64.2C1.2 50.6 2.6 36.4 5.8 23C6.4 20.6 7.6 18.4 8.2 16.2C8.4 15.2 8.6 14.2 8.6 13.6V8L12.4 7.6C15.6 3 19.6 0 23.8 0C28.4 0 31 2.2 31 6.8C31 7.79999 30.8 9.2 30.4 11C29.8 12.6 29.8 14.4 29.2 16C29 16.6 28.4 17 28.4 17.8C27.4 30.4 25.2 42.4 22.2 54.4C21.4 55.4 20.6 56.6 20.6 57.6C20.6 57.8 21 60.4 23.6 61.8L24.6 62.8C23.8 62.2 23.2 62 22.8 61.8C20.2 61.2 18 60.4 17.4 60.4L16.2 60L15.2 60.4C13.4 61 11 63 11 65.2V66.4L11.6 67.4C12.6 69.6 15 70.2 15.8 70.2C16.6 70.4 17.6 70.4 18.6 70.6C20.4 70.8 20.8 71 21.4 71.2L23.2 72.8C23.8 73.4 24.4 74.2 25 75C26.4 76.4 28 77.8 29.8 79.2C33 82.2 37.2 84.8 41.8 84.8C50.2 84.8 51.6 75.2 51.6 68.8V66.8L60.8 65.4H62C62.4 65.4 62.8 65.4 63.2 65.2H65.2C66.2 65 67 64.8 67.2 64.8L75 61.6C75.6 71.2 75.8 80.8 75.8 90.4C75.8 91.2 75.6 92.4 75 94C74.4 95.8 74.2 97.8 73.6 99.2C71.4 109 68.6 117 62.4 124C60.8 125.6 59 127.2 56.8 128L56 128.4C55.4 128.6 54.6 129 54 129.2L53.2 130C52.8 130.4 52.4 130.8 52.2 131.2C51 133 44.6 139.4 42 139.4C41.4 139.4 40.4 139.2 39 138.8C37.6 138.2 36.4 137.4 34.8 136.8L29.8 139.2C30 139 30.2 138.8 30.2 138.6C30.6 138.6 31 138.4 31.6 138.2C31 138 30.4 138 29.8 137.4C28.4 136.8 27 136.4 25.6 135.8C22.6 134.4 19.8 132.8 18.4 132.2C14.4 129.8 10.6 127.2 7.2 123.4C1.4 118 0 112 0 104.6V102.4V100.2ZM44.4 9.8C45.6 7.6 47.8 6.6 50.8 6.6C53 6.6 57.6 7.6 59.2 8.4C59.4 8.6 59.2 8.79999 59.8 9C60.2 9.4 60.6 10 61.2 10.8C67.6 17.2 72.2 25.2 73 34.6L73.6 41.2C74.2 47.8 74.4 54.2 75 60.8L67.6 57C66.2 56.4 64.8 56.2 64 56.2H61.8C58.6 56.2 55 56.4 51.6 57L52.2 48.2C52.2 46.6 51.8 39.6 50.2 37.4C49.6 36.8 49.6 36 49 35.4C48.8 34.8 48.4 34.6 48.4 34C47.8 33 47.8 31.8 47.6 31C47 29.4 46.2 28 45.6 27C45 26 44.4 25.2 43.8 24.2C42.8 22.8 42.4 21.8 42.4 19.6C42.4 15.4 43 12 44.4 9.8Z"
		fill="black" />
</svg>